name GIL03_xfast2.mot
datacolumns 153
datarows 4
range 0.40000001 0.42500001
endheader

                time	           pelvis_tx	           pelvis_ty	           pelvis_tz	         pelvis_tilt	         pelvis_list	     pelvis_rotation	       hip_flexion_r	     hip_adduction_r	      hip_rotation_r	        knee_angle_r	       ankle_angle_r	    subtalar_angle_r	         mtp_angle_r	       hip_flexion_l	     hip_adduction_l	      hip_rotation_l	        knee_angle_l	       ankle_angle_l	    subtalar_angle_l	         mtp_angle_l	    lumbar_extension	      lumbar_bending	     lumbar_rotation	     ground_force_vx	     ground_force_vy	     ground_force_vz	     ground_force_px	     ground_force_py	     ground_force_pz	     ground_force_vx	     ground_force_vy	     ground_force_vz	     ground_force_px	     ground_force_py	     ground_force_pz	     ground_torque_x	     ground_torque_y	     ground_torque_z	     ground_torque_x	     ground_torque_y	     ground_torque_z	    ground_marker_px	    ground_marker_py	    ground_marker_pz	    ground_marker_px	    ground_marker_py	    ground_marker_pz	    ground_marker_px	    ground_marker_py	    ground_marker_pz	    ground_marker_px	    ground_marker_py	    ground_marker_pz	    ground_marker_px	    ground_marker_py	    ground_marker_pz	    ground_marker_px	    ground_marker_py	    ground_marker_pz	    ground_marker_px	    ground_marker_py	    ground_marker_pz	    ground_marker_px	    ground_marker_py	    ground_marker_pz	    ground_marker_px	    ground_marker_py	    ground_marker_pz	    ground_marker_px	    ground_marker_py	    ground_marker_pz	    ground_marker_px	    ground_marker_py	    ground_marker_pz	    ground_marker_px	    ground_marker_py	    ground_marker_pz	    ground_marker_px	    ground_marker_py	    ground_marker_pz	    ground_marker_px	    ground_marker_py	    ground_marker_pz	    ground_marker_px	    ground_marker_py	    ground_marker_pz	    ground_marker_px	    ground_marker_py	    ground_marker_pz	    ground_marker_px	    ground_marker_py	    ground_marker_pz	    ground_marker_px	    ground_marker_py	    ground_marker_pz	    ground_marker_px	    ground_marker_py	    ground_marker_pz	    ground_marker_px	    ground_marker_py	    ground_marker_pz	    ground_marker_px	    ground_marker_py	    ground_marker_pz	    ground_marker_px	    ground_marker_py	    ground_marker_pz	    ground_marker_px	    ground_marker_py	    ground_marker_pz	    ground_marker_px	    ground_marker_py	    ground_marker_pz	    ground_marker_px	    ground_marker_py	    ground_marker_pz	    ground_marker_px	    ground_marker_py	    ground_marker_pz	    ground_marker_px	    ground_marker_py	    ground_marker_pz	    ground_marker_px	    ground_marker_py	    ground_marker_pz	    ground_marker_px	    ground_marker_py	    ground_marker_pz	    ground_marker_px	    ground_marker_py	    ground_marker_pz	    ground_marker_px	    ground_marker_py	    ground_marker_pz	    ground_marker_px	    ground_marker_py	    ground_marker_pz	    ground_marker_px	    ground_marker_py	    ground_marker_pz	    ground_marker_px	    ground_marker_py	    ground_marker_pz	    ground_marker_px	    ground_marker_py	    ground_marker_pz	    ground_marker_px	    ground_marker_py	    ground_marker_pz	    ground_marker_px	    ground_marker_py	    ground_marker_pz	
          0.40000001	          1.21991539	          0.87375283	         -0.26511315	          0.01315117	         -2.61226940	          5.01248312	         22.76327515	         -0.04967121	         -3.87722588	        -16.28230286	         -3.83627057	          0.00000000	          0.00000000	         -9.30370045	         -6.89435291	         -3.10834599	        -41.56029129	         -6.69961452	          0.00000000	          0.00000000	        -21.64086342	          2.63229728	          3.93311405	       -105.63353274	        532.44292490	         10.51866933	          1.37608032	          0.00000000	         -0.20316988	          1.06686952	         10.29847680	          1.17279073	          0.81716058	          0.00000000	         -0.30919672	          0.00000000	         -0.81508435	          0.00000000	          0.00000000	         -0.02169176	          0.00000000	          1.15901256	          0.81341732	         -0.26118162	          1.16848910	          0.79774785	         -0.19939449	          1.14748085	          0.79366016	         -0.31490022	          1.31368327	          0.44949558	         -0.20371957	          1.08434153	          0.43246108	         -0.34371215	          1.35647321	          0.06280991	         -0.21378285	          0.76970440	          0.18170530	         -0.34921750	          1.21991539	          0.87375283	         -0.26511315	          1.22942281	          0.87638444	         -0.16541226	          1.21040785	          0.87112129	         -0.36481401	          1.06709480	          0.90636414	         -0.21868333	          1.06152201	          0.90894735	         -0.27445519	          1.32588279	          0.45391810	         -0.15027231	          1.09082127	          0.43563747	         -0.39773229	          1.30762053	          0.43972799	         -0.24950449	          1.08657956	          0.41136435	         -0.30273405	          1.34915078	          0.06101706	         -0.17602816	          0.77380121	          0.17739992	         -0.38725603	          1.38018453	          0.07503679	         -0.24185269	          0.79143113	          0.17478198	         -0.32533693	          1.13041043	          1.32188392	         -0.22808845	          1.22838259	          1.23240530	         -0.19565246	          1.21370769	          1.23670280	         -0.29810151	          1.20698822	          1.24783397	         -0.25002638	          1.23847997	          1.07522476	         -0.26023459	          1.37459910	          0.66428959	         -0.21333794	          1.25227439	          0.57250065	         -0.32228583	          1.29596496	          0.67772716	         -0.15677476	          1.18510723	          0.62615508	         -0.37874296	          1.32340908	          0.59723967	         -0.15875490	          1.17264104	          0.53981817	         -0.38027281	          1.33584929	          0.17506531	         -0.10365533	          0.84636867	          0.27567714	         -0.45038053	          1.34422493	          0.18302833	         -0.14594541	          0.84980953	          0.27252492	         -0.40966162	          1.47067332	          0.04266617	         -0.17094862	          0.81365359	          0.05959840	         -0.34539914	
          0.40833333	          1.23799860	          0.87373006	         -0.26285750	          0.20784092	         -3.47493386	          4.52538967	         22.43271637	          1.45960724	         -3.70521355	        -18.13532448	         -2.51045132	          0.00000000	          0.00000000	         -7.66417885	         -7.92975950	         -3.52252579	        -45.76992416	         -6.96109247	          0.00000000	          0.00000000	        -21.91927338	          3.54317760	          4.66167688	       -120.43540239	        545.20899704	          7.34738084	          1.38597803	          0.00000000	         -0.20212076	          0.00000000	          0.00000000	          0.00000000	          0.82022266	          0.00000000	         -0.30731586	          0.00000000	         -0.85402576	          0.00000000	          0.00000000	          0.00000000	          0.00000000	          1.17789340	          0.81431031	         -0.25968191	          1.18651855	          0.79861820	         -0.19616129	          1.16613114	          0.79254681	         -0.31169102	          1.32971311	          0.45075282	         -0.20364405	          1.11418128	          0.42860711	         -0.34242603	          1.35821617	          0.06291513	         -0.21476032	          0.79017067	          0.19247991	         -0.34931079	          1.23799860	          0.87373006	         -0.26285750	          1.24698007	          0.87804353	         -0.16309561	          1.22901714	          0.86941665	         -0.36261937	          1.08465028	          0.90641439	         -0.21818747	          1.07904923	          0.90831178	         -0.27418759	          1.34232891	          0.45479771	         -0.15026352	          1.12054288	          0.43225974	         -0.39643008	          1.32792807	          0.44417545	         -0.24948424	          1.11787260	          0.40551436	         -0.30319691	          1.35203707	          0.06137273	         -0.17679071	          0.79463780	          0.18745546	         -0.38721925	          1.38205516	          0.07469042	         -0.24312007	          0.81116772	          0.18513052	         -0.32524452	          1.14688861	          1.32153034	         -0.22685541	          1.24442339	          1.23186767	         -0.19500069	          1.22970116	          1.23644984	         -0.29737148	          1.22303593	          1.24756706	         -0.24928449	          1.25403988	          1.07481372	         -0.25993761	          1.39197564	          0.66564482	         -0.21246839	          1.27788925	          0.57313234	         -0.32033587	          1.31357384	          0.68115288	         -0.15427640	          1.20903575	          0.62424111	         -0.37708148	          1.34253728	          0.60100883	         -0.15754633	          1.19964588	          0.53757221	         -0.37934554	          1.34515846	          0.17555007	         -0.10384800	          0.87206632	          0.28130451	         -0.45028901	          1.35509336	          0.18527032	         -0.14596044	          0.87558603	          0.27807796	         -0.41025311	          1.47293937	          0.04115676	         -0.17224051	          0.82879943	          0.06708527	         -0.34729138	
          0.41666666	          1.25587177	          0.87405539	         -0.26064727	          0.35169697	         -4.32892084	          4.02217197	         21.93497467	          2.92065549	         -3.87799644	        -19.64915085	         -1.05619359	          0.00000000	          0.00000000	         -5.89197016	         -8.87258530	         -3.58706188	        -49.89726639	         -6.57617950	          0.00000000	          0.00000000	        -22.30307007	          4.64088058	          5.40887737	       -131.94011199	        566.88998864	          3.98360086	          1.39417603	          0.00000000	         -0.20112787	          0.00000000	          0.00000000	          0.00000000	          0.82293262	          0.00000000	         -0.30533417	          0.00000000	         -0.78239600	          0.00000000	          0.00000000	          0.00000000	          0.00000000	          1.19705272	          0.81603146	         -0.25810897	          1.20425081	          0.79988313	         -0.19301505	          1.18452680	          0.79185760	         -0.30854070	          1.34419739	          0.45192793	         -0.20319496	          1.14452958	          0.42552772	         -0.34057990	          1.35933769	          0.06320316	         -0.21549365	          0.81263947	          0.20333996	         -0.34889016	          1.25587177	          0.87405539	         -0.26064727	          1.26429522	          0.88003737	         -0.16078369	          1.24744844	          0.86807340	         -0.36051086	          1.10201836	          0.90690148	         -0.21792983	          1.09649098	          0.90805161	         -0.27400354	          1.35688829	          0.45546991	         -0.14979650	          1.15102458	          0.42953816	         -0.39454269	          1.34467411	          0.44781396	         -0.24961706	          1.14851058	          0.40203705	         -0.30133721	          1.35390937	          0.06178665	         -0.17740455	          0.81748092	          0.19752000	         -0.38663852	          1.38332272	          0.07430683	         -0.24391128	          0.83333385	          0.19535406	         -0.32461676	          1.16341555	          1.32148159	         -0.22589231	          1.26026297	          1.23136735	         -0.19467695	          1.24564528	          1.23659885	         -0.29707602	          1.23896396	          1.24751139	         -0.24881692	          1.26917315	          1.07463753	         -0.26051095	          1.40866685	          0.66643053	         -0.21050645	          1.30341685	          0.57465184	         -0.31735605	          1.33025324	          0.68346947	         -0.15134607	          1.23326170	          0.62359262	         -0.37421808	          1.35932148	          0.60355687	         -0.15574801	          1.22654581	          0.53681600	         -0.37675726	          1.35242605	          0.17589101	         -0.10386118	          0.89931452	          0.28689095	         -0.44967991	          1.36092329	          0.18633509	         -0.14574221	          0.90341443	          0.28349775	         -0.41003323	          1.47434795	          0.04030096	         -0.17290430	          0.84764415	          0.07543401	         -0.34963560	
          0.42500001	          1.27358985	          0.87476200	         -0.25853240	          0.44424820	         -5.14233112	          3.52088332	         21.18561554	          4.27688646	         -4.27550030	        -20.63822174	          0.37326795	          0.00000000	          0.00000000	         -4.02063942	         -9.68441391	         -3.30184364	        -53.82749557	         -5.60974550	          0.00000000	          0.00000000	        -22.77927971	          5.78046036	          6.19336319	       -134.16578856	        594.15728780	          0.40347737	          1.39966650	          0.00000000	         -0.20025320	          0.00000000	          0.00000000	          0.00000000	          0.82551337	          0.00000000	         -0.30324530	          0.00000000	         -0.52239191	          0.00000000	          0.00000000	          0.00000000	          0.00000000	          1.21700978	          0.81985748	         -0.25804469	          1.22175419	          0.80153465	         -0.19004014	          1.20270777	          0.79165488	         -0.30553582	          1.35674417	          0.45283273	         -0.20228097	          1.17518258	          0.42338094	         -0.33819836	          1.36013162	          0.06352629	         -0.21597387	          0.83708715	          0.21380886	         -0.34785604	          1.27358985	          0.87476200	         -0.25853240	          1.28144455	          0.88234085	         -0.15853852	          1.26573515	          0.86718315	         -0.35852629	          1.11928725	          0.90790695	         -0.21785095	          1.11394763	          0.90814286	         -0.27379465	          1.36924791	          0.45579594	         -0.14880317	          1.18205857	          0.42764711	         -0.39209425	          1.35745108	          0.44915670	         -0.24905968	          1.17919230	          0.40035835	         -0.29700428	          1.35501981	          0.06214054	         -0.17783989	          0.84223479	          0.20723632	         -0.38543999	          1.38386762	          0.07379733	         -0.24444057	          0.85778594	          0.20493768	         -0.32332256	          1.18001187	          1.32179785	         -0.22515610	          1.27588964	          1.23096478	         -0.19463687	          1.26140630	          1.23703921	         -0.29706272	          1.25479555	          1.24773145	         -0.24858154	          1.28367209	          1.07464612	         -0.26160431	          1.42453444	          0.66639298	         -0.20769788	          1.32877600	          0.57712859	         -0.31342602	          1.34557712	          0.68375421	         -0.14831434	          1.25779176	          0.62384737	         -0.37051973	          1.37332904	          0.60373634	         -0.15324526	          1.25374413	          0.53712189	         -0.37258464	          1.35763621	          0.17596261	         -0.10368707	          0.92779809	          0.29245612	         -0.44840983	          1.36467755	          0.18606755	         -0.14580178	          0.93247259	          0.28919378	         -0.40886372	          1.47515297	          0.03988427	         -0.17312181	          0.87023920	          0.08422343	         -0.35233450	
